<?xml version="1.0" encoding="utf-8"?>
<!-- Generator: Adobe Illustrator 27.0.1, SVG Export Plug-In . SVG Version: 6.00 Build 0)  -->
<svg version="1.1" id="Layer_1" xmlns="http://www.w3.org/2000/svg" xmlns:xlink="http://www.w3.org/1999/xlink" x="0px" y="0px"
	 viewBox="0 0 592.8 593" style="enable-background:new 0 0 592.8 593;" xml:space="preserve">
<style type="text/css">
	.st0{fill:#1E293B;}
	.st1{fill:#059595;}
</style>
<circle class="st0" cx="295.4" cy="296.5" r="296.5"/>
<path class="st1" d="M17.5,311.9c0.3-0.6,0.7-1.2,0.8-1.8c1.7-8.2,6.7-13.4,14.4-16c4.7-1.6,9.5-2.9,14.3-4.5
	c5.2-1.7,10.3-3.5,15.4-5.4c1.8-0.7,3.3-1.7,5-2.7c0.8-0.5,1.4-1.1,1.4-2.2c0-3.9,0.2-7.9-0.8-11.7c-1.7-6.7-6.1-10.3-12.9-10.7
	c-6.4-0.4-11.3,2-14.4,7.5c-1.5,2.6-2.7,5.4-3.6,8.3c-1.8,5.2-4.4,6.7-9.7,5c-5.3-1.7-7.6-6.2-5.7-11.4c0.5-1.4,1.2-2.8,2.2-3.9
	c2-2.2,3.8-4.7,6.5-6.1c0.3-0.2,0.6-0.5,0.8-0.8c1.2-1.8,3-2.3,5.1-2.5c1.8-0.2,3.5-0.7,5.3-1.1c9.6-2.4,19.2-2.5,28.7,0.4
	c8.5,2.6,13.4,8.4,14.5,17.3c0.2,1.9,0.4,3.9,0.4,5.9c0,13.4,0,26.8,0.1,40.2c0,2.5,0.3,5.1,0.9,7.6c1,4.3,3.6,6.1,8.1,6.1
	c0.1,0,0.2,0,0.2,0c3.7-0.2,3.2-0.7,3.9,3.5c0.2,1.3-0.3,2.1-1.5,2.7c-0.9,0.5-1.8,1.1-2.7,1.7c-0.3,0.2-0.7,0.3-1,0.4
	c-1.7,0.3-3.4,0.7-5.1,0.9c-2.8,0.4-5.7,0.7-8.5,0.9c-4,0.2-6.9-1.8-8.8-5.3c-0.8-1.4-1.4-2.8-2.1-4.5c-0.6,0.4-1.2,0.7-1.8,1
	c-3.8,2.1-7.4,4.4-11.3,6.2c-6.3,2.9-13,3.5-19.7,1.8c-9.5-2.4-15.2-8.6-17.3-18.1c-0.2-0.9-0.6-1.7-0.9-2.5
	C17.5,315.8,17.5,313.8,17.5,311.9L17.5,311.9z M69.1,288.6c-0.9-0.7-1.6-0.6-2.4-0.1c-1.5,0.8-3.1,1.6-4.7,2.2
	c-4.1,1.6-8.3,3.2-12.5,4.8c-2.8,1.1-5.6,2.4-8,4.2c-3.3,2.5-5.7,5.7-5.6,10.1c0,1.8-0.1,3.6,0.1,5.4c0.8,6.6,4.3,12.7,12,14.1
	c7.1,1.2,13.4-0.4,18-6.3c2.3-2.9,2.9-6.5,3-10c0.1-4.6,0-9.2,0-13.8C69.1,295.6,69.1,292,69.1,288.6z"/>
<path class="st1" d="M309,575.7c-0.3-0.4-0.6-0.7-0.8-1.1c-1.1-2-0.4-3.6,1.8-4.1c1-0.2,2-0.2,2.9-0.3c1.8-0.3,2.7-1,3-2.8
	c0.2-1.6,0.4-3.2,0.2-4.7c-1.6-10.2-3.2-20.5-4.9-30.7c-0.1-0.8-0.4-1.6-0.6-2.4c-1-2.6-2.5-3.4-5.1-2.7c-0.9,0.2-1.7,0.5-2.6,0.7
	c-1.6,0.3-2.5-0.2-3-1.4c-0.6-1.3-0.2-2.8,1.1-3.5c0.7-0.4,1.7-0.7,2.6-0.7c4.4-0.1,8.7-0.8,12.9-2c1-0.3,2.2-0.4,3.3-0.2
	c1.6,0.2,2.6,1.4,3.3,2.8c2.3,4.7,4.6,9.4,6.8,14.1c3.8,7.8,7.6,15.7,11.4,23.5c0.3,0.7,0.7,1.3,1,1.9c0.2,0,0.3,0,0.5-0.1
	c0.2-1.4,0.5-2.8,0.7-4.1c2-13.1,3.9-26.2,5.9-39.3c0.1-0.4,0.1-0.8,0.2-1.1c0.5-2.2,1.5-3.1,3.7-3.3c0.5-0.1,1.1-0.1,1.6,0
	c4.1,0.2,8-0.5,11.8-2c1.7-0.7,3.3-0.9,4.8,0.6c1.4,1.5,1,3.7-1.1,4.3c-0.9,0.2-1.9,0.2-2.9,0.2c-3.2,0.1-4.7,1.5-4.4,4.7
	c0.3,3.8,0.9,7.5,1.5,11.2c1.1,7.4,2.3,14.8,3.5,22.2c0.2,1.1,0.4,2.2,0.9,3.3c0.9,2.2,2.4,2.9,4.7,2.3c1-0.2,2-0.6,3.1-0.7
	c1.7-0.2,2.5,0.3,2.9,1.8c0.4,1.6-0.2,2.9-1.8,3.4c-0.6,0.2-1.3,0.3-2,0.3c-6.1,0.3-12.2,0.9-18.1,2.9c-0.7,0.2-1.5,0.3-2.2,0.3
	c-1.6,0-2.3-0.6-2.6-2c-0.3-1.6,0.2-2.8,1.7-3.2c0.9-0.3,1.9-0.3,2.9-0.4c2.7-0.3,3.6-1.1,3.9-3.8c0.2-1.6,0.2-3.2,0-4.8
	c-1.6-11-3.3-22-4.9-33c-0.1-0.6-0.3-1.3-0.9-1.9c-0.2,0.4-0.4,0.9-0.4,1.3c-2,12.4-3.9,24.8-5.9,37.2c-0.4,2.7-0.8,5.4-1.3,8.1
	c-0.1,0.8-0.4,1.6-0.6,2.4h-8.8c-7.1-14.2-14.3-28.6-21.6-43.2c-0.7,1.1-0.4,1.8-0.3,2.5c1.9,11.5,3.9,23,5.9,34.4
	c0.1,0.4,0.2,0.9,0.3,1.3c0.9,3.5,2.6,4.5,6,3.6c0.6-0.2,1.2-0.3,1.8-0.5c2-0.4,3.1,0.2,3.5,2.1c0.3,1.3-0.7,2.7-2.4,3
	c-1.9,0.3-3.9,0.4-5.9,0.5c-4.2,0.3-8.4,1.1-12.4,2.3c-0.5,0.1-0.9,0.5-1.4,0.7L309,575.7L309,575.7z"/>
<path class="st1" d="M335.1,455.2c-0.3,1.1-0.4,1.6-0.5,2.1c-0.7,5.3-3,9.8-6.3,13.9c-1.6,2-3.6,2.9-6.2,2.5
	c-1.3-0.2-2.6-0.1-3.8-0.3c-1.3-0.2-2.7-0.3-4-0.8c-2.1-0.8-2.4-3.3-0.7-4.8c0.6-0.5,1.4-0.9,2.2-1.2c0.8-0.3,1.6-0.5,2.4-0.7
	c3.7-1.1,4.8-2.5,4.9-6.3c0.1-4.7-1.4-8.8-4.3-12.4c-1.3-1.6-2.5-3.2-3.8-4.8c-0.9-1.1-1.5-1.2-2.8-0.5c-0.8,0.4-1.6,0.9-2.4,1.3
	c-1.4,0.7-2.9,1-4.4,0.5c-1-0.3-1.9-0.2-2.8,0.3c-0.7,0.4-1.5,0.7-2.3,0.8c-2.4,0.3-4.8,0.7-6.9,1.9c-1.1,0.6-2.4,0.3-3.5-0.3
	c-0.8-0.4-1.6-0.8-2.5-0.1c-0.3,0.2-1,0-1.4-0.1c-2.3-0.6-3.1,0.1-2.8,2.5c0.2,1.3,0.5,2.7,0.9,4.1c-1.3,0.5-1.3,1.5-1.2,2.7
	c0.2,1.5,0.2,3,0.2,4.5c0,0.8-0.2,1.6-0.4,2.7c-0.8-0.6-1.3-0.9-1.8-1.3c-1.3,1.6-1.1,3.4-1.2,5.4c-2.4,0.1-3.6,1.9-4.7,3.7
	c-0.6,1-1.3,2.1-2,3c-1.1,1.5-2.6,2.3-4.4,2.3c-2.9-0.1-5.7-0.1-8.6-0.3c-2.5-0.2-3.1-1.4-2.1-3.7c0.7-1.6,1.9-2.5,3.4-3.2
	c3.6-1.8,5.1-4.8,4.5-8.8c-0.2-1.8-0.3-3.6-0.6-5.4c-0.4-2.7-0.8-5.4-1.3-8.1c-0.6-3-2-5.5-4.1-7.7c-0.9-0.9-1.6-1.8-2.4-2.7
	c-0.7-0.8-1.1-1.8-2.5-1.7c-0.3,0-0.7-0.5-0.8-0.9c-0.3-1-0.4-2.1-0.6-3.1c-0.1-0.8-0.1-1.6-0.2-2.5c-0.6-0.1-1-0.2-1.5-0.3
	c-0.1-0.2-0.2-0.4-0.2-0.6c-0.2-1.9-0.3-3.8-0.5-5.6c-0.1-0.9,0.1-1.9-1.1-2.2c-0.3-0.1-0.5-0.7-0.6-1.1c-0.2-0.9-0.4-1.8-0.5-2.8
	c-0.8,0.2-1.5,0.4-2.6,0.8c1.8-5.2,2.1-10.6,5.1-15.4c-1-0.4-1.8-0.8-2.6-1c-2-0.4-4-0.7-6-1c-2.8-0.5-4.7-1.9-5.6-4.6
	c-0.6-1.9-0.3-2.9,1.4-3.8c1.8-1,3.6-1.8,5.5-2.8c0.7-0.4,1.5-0.7,2.2-1.1c1.1-0.7,1.8-1.6,1.9-2.9c0.2-2.6,1.5-4.5,3.5-6
	c1.2-0.9,2.4-1.9,3.5-2.9c0.8-0.8,1.6-1.8,2.1-2.9c0.5-1,1.2-1.5,2.2-1.7c1.8-0.4,3.6-0.2,5.3,0.6c1.5,0.8,3.1,1.5,4.8,2.1
	c1.3,0.5,2.1,1.3,2.4,2.8c0.1,0.7,0.3,1.3,0.5,1.9c0.7,1.4,1.6,1.8,3.1,1.4c1.7-0.5,3.1-0.1,4.1,1.5c0.3,0.4,0.7,0.9,1.1,1
	c1.8,0.6,2.8,2,4,3.2c1.1,1.1,1.7,2.1,0.5,3.7c2.2,1.9,4.2,3.8,6.3,5.5c0.4,0.4,1.1,0.4,1.7,0.6c1.5,0.5,3.1,0.5,4.3,1.8
	c0.3,0.3,1,0.4,1.5,0.5c3.8,0.7,7.7,0.5,11.5,0.2c2.7-0.2,5.4-0.1,8.1-0.2c1.6,0,3.3,0.3,4.9-0.6c0.4-0.2,0.9-0.1,1.3-0.1
	c4.3,0.5,8.6,0.8,12.8,1.6c6.7,1.3,11.1,5.3,12.6,12.1c0.2,0.9,0.2,1.8,0.2,2.7c0.1,2.7,1.2,4.8,3.7,6c1.7,0.8,2.5,2.3,3.3,3.9
	c0.4,0.8,0,1.4-0.6,1.8c-1.2,0.7-1.1,1.6-0.5,2.7c1,1.7,1.1,3.6,1.1,5.5c0,2.9-0.1,5.9-0.2,8.8c0,0.7-0.4,1.5-0.9,1.9
	c-1.1,1-1.5,2.2-1.7,3.6c-0.7,3.7-0.2,7.3,1,10.7c0.9,2.6,1.1,4.9-0.6,7.3c-0.6,0.8-0.7,2.1-0.7,3.2c-0.1,1.6-0.4,2.7-2,3.5
	c-0.7,0.4-1.3,1.2-1.7,2c-0.8,1.2-1.4,2.5-2.1,3.7c-1.1,1.8-2.8,2.7-5,2.6c-1.8-0.1-3.6-0.3-5.4-0.5c-1.6-0.2-2.5-1.4-2.5-3.1
	c0-1.7,0.9-3,2.4-3.9c2.1-1.2,3.1-3.1,3-5.5c-0.2-3.6-1.3-6.8-3.7-9.5C336.5,456.3,335.9,455.9,335.1,455.2L335.1,455.2z"/>
<path class="st1" d="M345.6,198.2c-3,0.4-6,1.1-9.1,0.4c-1.1-0.2-1.7-0.9-2-1.9c-0.6-1.8-1.2-3.6-1.9-5.3c-0.2-0.4-0.6-1-1-1.1
	c-1.2-0.3-1.5-1.1-1.8-2.1c-0.6-2.3-1.2-4.5-1.8-6.8c0-0.1-0.1-0.3-0.1-0.4c0.9-4.6-1.7-8.8-1.7-13.3c0-0.4-0.1-1-0.4-1.2
	c-1.5-0.9-1.7-2.4-1.9-3.9c-0.1-0.3-0.3-0.7-0.5-0.9c-2.6,0.3-3.7,1.3-4.1,3.5c-0.3,1.6-0.6,3.3-0.8,4.9c-0.2,1.2-0.7,2.2-1.5,3.2
	c-0.7,0.9-1.1,2.1-1.3,3.3c-0.4,2.6-1,5.2-0.9,7.9c0,2.4-0.4,5,0.7,7.4c0.6,1.2,1.3,2.2,2.7,2.5c1.6,0.3,2.4,1.5,3.1,2.8
	c0.5,1,0.2,1.7-0.9,1.8c-3.1,0.2-6.2,0.4-9.3,0.5c-1.3,0-1.8-0.9-1.9-2.1c-0.3-1.9-0.6-3.9-1.1-5.7c-0.2-0.8-0.7-1.7-1.2-2.4
	c-0.5-0.7-0.8-1.3-0.8-2.2c-0.1-2.6-0.3-5.1-0.4-7.7c0-2,0.1-3.9,0.4-5.9c0.5-3.1-0.3-6-1-8.9c-0.2-0.8-1-1.6-1.7-2
	c-1.4-0.7-2.9-1-4.5-1.1c-3.1-0.2-6.1-0.8-9.2-1.3c-2.1-0.4-4.1-0.9-6.2-1.2c-2.2-0.4-3,0.3-3,2.5c0.2,4.3-0.8,8.4-2.5,12.4
	c-1.9,4.4-2,8.8-1.2,13.3c0.3,1.6,1,2.8,2.5,3.5c1.5,0.7,2.8,1.7,3.7,3.2c1.2,2.2,0.6,3.5-1.9,3.6c-2.2,0.1-4.4,0.2-6.6,0.1
	c-3.7-0.1-5.2-1.6-5.5-5.3c-0.3-4.3-1-8.5-2.2-12.7c-0.5-1.5-0.5-3.4-0.1-4.9c1-3.9-0.3-7.2-2.2-10.3c-0.4-0.6-1-1.1-1.6-1.6
	c-1.5-1.1-2.4-1-3.3,0.6c-2.9,4.9-6.8,9.1-10.8,13.1c-3.1,3-5.3,6.5-6.6,10.7c-0.8,2.4-0.6,4.5,1.1,6.6c1.7,2.1,0.7,4.3-1.9,4.6
	c-1.8,0.2-3.6,0.4-5.4,0.4c-0.7,0-1.5-0.1-2.2-0.2c-1.6-0.4-2.3-1.6-2.1-3.3c0-0.3,0.1-0.6,0.2-0.9c2.3-5.1,2.8-10.7,4.2-16
	c0.6-2.4,1.4-4.6,2.9-6.6c1.5-2,2-4.2,1.8-6.6c-0.3-3.2,0.3-6.3,1.5-9.3c0.7-1.7,1-3.5,0.7-5.3c-0.5-3.9,0.2-7.5,1.6-11.1
	c0.5-1.3,1-2.5,1.6-3.8c1-2.2,1.3-4.4,0.9-6.8c-0.3-2-0.2-4.1,0.3-6c0.8-3.6,2.3-7.1,4.5-10.1c2.4-3.1,5.3-5.3,9.4-5.7
	c5.2-0.5,10.7,2.6,12.6,7.5c1.1,2.8,1.7,2.5,3.9,2.3c2.8-0.3,5.5-0.8,8.3-1.1c3.2-0.3,6.3-0.7,9.4,0.6c1.1,0.5,2.3,0.4,3.5-0.3
	c0.7-0.4,1.6-0.6,2.4-0.6c2.3-0.1,4.4-0.7,6.5-1.6c1.3-0.6,2.7-1,4.1-1.1c3.4-0.2,5.8-2.1,8-4.3c0.5-0.5,0.6-1.5,0.6-2.3
	c0-1.8-0.3-3.6-0.4-5.4c-0.1-1.1-0.1-2.3,0.1-3.4c0.4-2.3,1.6-3.5,3.8-3.4c4.1,0.1,8.3,0.1,12.4,0.8c3.2,0.5,6.3,2,9.5,3.1
	c0.7,0.2,1.4,0.5,2.2,0.5c3,0.3,5.6,1.4,7.8,3.3c1.7,1.4,3.3,2.9,4.9,4.3c1.8,1.7,2.1,3.2,0.4,5.1c-1.6,1.9-3.3,3.7-5.2,5.4
	c-1.3,1.2-2.4,2.4-2.8,4.2c-0.4,1.7-1.4,3-2.7,4.1c-0.8,0.7-1.2,1.5-1.3,2.6c-0.1,2.8-1.1,5.3-2.3,7.8c-2.1,4.3-3.8,8.7-4.9,13.4
	c-0.5,2.3-1.5,4.6-2.4,6.8c-1.6,3.8-2.1,7.7-1.2,11.8c0.4,1.9,0.2,3.5-0.6,5.4c-1.2,2.9-1.2,6.1-0.3,9.1c0.4,1.4,0.6,2.8,0.2,4.2
	c-0.6,2.3,0.2,4.3,1.2,6.3c0.3,0.6,1.1,1,1.8,1.3c0.7,0.3,1.6,0.4,2.4,0.7C345.4,194.6,345.9,195.6,345.6,198.2L345.6,198.2z
	 M260,120.1c2.7,0.9,4.3-0.7,6.2-0.8c0.4-1,0.3-1.8-0.6-2.3c-0.9-0.5-1.7-0.5-2.5,0.2C262.2,118.1,261.2,118.9,260,120.1z"/>
<path class="st1" d="M252.3,336.5c-2.1,0.5-39.9,0.6-42.4,0.1c0-1.4-0.1-2.8,0-4.2c0.1-1,0.9-1.3,1.8-1.4c1.7-0.2,3.3-0.3,5-0.5
	c0.8-0.1,1.6-0.3,2.4-0.5c1.9-0.6,3.1-1.9,3.3-3.9c0.2-1.9,0.3-3.8,0.3-5.7c0-16.9,0-33.7,0-50.6c0-1.7-0.1-3.5-0.3-5.2
	c-0.2-2-1.3-3.2-3.2-3.6c-1.8-0.4-3.7-0.6-5.6-1c-0.8-0.2-2.1,0-2.3-1c-0.2-1.3-0.1-2.7,0.1-4c0-0.3,1-0.6,1.5-0.7
	c4.5-0.8,9.1-1.5,13.6-2.3c1.3-0.2,2.6-0.8,3.9-1.2c1.6-0.4,3.2-1,4.8-1.2c2.1-0.2,2.7,0.3,3.2,2.3c0.5,1.8,0.7,3.5,1.1,5.3
	c0.1,0.3,0.1,0.6,0.1,0.9c0.5,2.4,1,2.6,3.2,1.3c3.3-2,6.5-4.1,9.9-5.9c5.7-3.1,11.7-4.9,18.2-4.7c5,0.1,9.7,1.2,14.2,3.6
	c4.5,2.4,7.6,6.1,9.2,11c0.1,0.4,0.2,0.9,0.4,1.3c2,3.2,2,6.8,2,10.3c0,7.1,0,14.2,0,21.3c0,8.3-0.1,16.6,0,25c0,2.3,0.6,4.6,1,6.9
	c0.2,1.1,1.1,1.6,2.1,1.8c2.1,0.4,4.2,0.7,6.3,0.9c2.5,0.3,2.7,0.4,2.7,2.9c0,1-0.1,1.9-0.2,3c-0.7,0.1-1.2,0.2-1.7,0.2
	c-12.6,0-25.1,0-37.7,0c-0.6,0-1.2,0-1.8,0c-0.7,0-1.1-0.5-1.1-1.2c0-0.1,0-0.2,0-0.2c0-4.7-0.5-4.3,3.9-4.6
	c1.8-0.1,3.6-0.5,5.4-0.9c2-0.5,3.1-1.9,3.4-3.8c0.2-1.3,0.2-2.6,0.2-3.8c0-13.9,0-27.8,0-41.8c0-3.3-0.4-6.5-1.4-9.6
	c-2-6.3-6.3-9.8-12.7-10.8c-9.1-1.4-18.5,3-23.2,11c-1.4,2.4-2.2,5-2.2,7.8c0,14.9,0,29.8,0,44.7c0,0.8,0.2,1.7,0.3,2.5
	c0.3,2.1,1.5,3.5,3.6,3.9s4.2,0.7,6.3,0.9c2.3,0.2,2.5,0.4,2.5,2.8C252.3,334.6,252.3,335.5,252.3,336.5L252.3,336.5z"/>
<path class="st1" d="M171.7,327.2c-1.1,0.6-2,1.1-2.9,1.7c-4.3,2.8-8.8,5.4-13.5,7.4c-6.6,2.7-13.4,3.7-20.4,2.6
	c-10.6-1.8-17-8.4-18.4-19c-0.3-2.4-0.5-4.8-0.5-7.2c0-14.4,0-28.8,0-43.1c0-1.5,0-3-0.1-4.5c-0.3-3.1-1.2-4.1-4.3-4.7
	c-1.6-0.3-3.3-0.4-4.9-0.8c-0.9-0.2-2.3,0.2-2.6-1c-0.3-1.2-0.2-2.5,0-3.8c0.1-0.9,0.9-1.1,1.7-1.2c7.5-0.8,15-1.6,22.6-2.4
	c0.6-0.1,1.2-0.1,1.8-0.1c2.2-0.1,2.7,0.3,2.7,2.6c0,4.2,0,8.3,0,12.5c0,14.4,0,28.8,0,43.1c0,2.6,0.3,5.2,0.8,7.6
	c1.9,8.1,7.7,12.7,16,12.7c8.4,0,15-3.5,19.8-10.5c1.6-2.4,2.4-5,2.4-7.9c0.1-11.2,0.2-22.4,0.2-33.6c0-4.1,0-8.2-0.2-12.3
	c-0.1-3.5-1-4.5-4.5-5.2c-1.7-0.3-3.4-0.6-5.1-0.8c-1.8-0.3-2-0.4-2-2.3c0-1,0-1.9,0-3c2.7-0.3,5.1-0.6,7.4-0.9
	c5.4-0.6,10.8-1.2,16.2-1.8c0.9-0.1,1.8-0.2,2.7-0.2c2,0,2.3,0.3,2.4,2.4c0,0.7,0,1.4,0,2c0,22.1,0,44.2,0,66.3
	c0,1.4,0.1,2.9,0.3,4.3c0.3,2.2,1.6,3.8,3.9,4.2c2.1,0.4,4.2,0.7,6.3,0.9c2.2,0.3,2.4,0.4,2.4,2.6c0,3.4,0,3.4-3.4,3.3
	c-7.3,0-14.5,0-21.8,0c-0.3,0-0.6,0-0.9,0c-2-0.1-2.3-0.4-2.7-2.3c-0.3-1.8-0.6-3.6-0.9-5.4C172.1,328.7,171.9,328.1,171.7,327.2
	L171.7,327.2z"/>
<path class="st1" d="M472.2,293.2c-7,0-14.1,0-21.1,0c-0.6,0-1.2,0-1.8,0c-2,0.1-2.6,0.5-2.6,2.6c-0.1,7.7,1.1,15.1,4.6,22
	c3.2,6.3,8.6,9.9,15.6,10.8c9.9,1.4,17.9-1.9,23.5-10.3c1.1-1.6,2.1-3.4,3.1-5c1.3-2,2.7-2.3,5.1-1c2,1.1,2.6,2.7,1.6,4.7
	c-1.4,2.8-2.6,5.6-4.3,8.2c-4.6,7-11.1,11.5-19.4,13.1c-9.5,1.9-18.8,1.4-27.9-1.9c-7.2-2.6-12.6-7.4-16.3-14.1
	c-2.3-4.2-3.7-8.9-4.5-13.7c-1.6-10.2-1.6-20.4,1.1-30.4c2.5-9,7.1-16.7,15-22c4.9-3.3,10.4-5.1,16.3-5.8c6.9-0.8,13.7-0.6,20.4,1.6
	c9.5,3,15.7,9.3,19.1,18.6c1.7,4.6,2.3,9.4,2.3,14.2c0,1.6-0.5,3.1-0.9,4.6c-0.5,2.2-2.1,3.3-4.2,3.5c-1.6,0.2-3.2,0.3-4.8,0.3
	C485.5,293.2,478.9,293.2,472.2,293.2L472.2,293.2z M445.7,284.9c0.7,0,1,0.1,1.4,0.1c10.4,0,20.7,0,31.1,0c0.6,0,1.2,0,1.8-0.2
	c2.3-0.5,3.4-1.8,3.5-4.1c0.3-5.2-0.4-10.2-2.6-15c-3.9-8.7-12.1-10.8-20.3-8.8c-4.4,1.1-7.5,4-9.9,7.8c-3.5,5.5-4.6,11.7-5.3,18.1
	C445.3,283.5,445.6,284.1,445.7,284.9L445.7,284.9z"/>
<path class="st1" d="M516.8,308.6c1.5-0.7,3.2-0.4,4.8-0.2c0.5,0.1,1,1,1.2,1.7c0.9,2.5,1.6,5,2.6,7.5c1.1,2.9,2.8,5.5,4.8,7.9
	c5.5,6.4,15,9,23,6.2c6-2.1,9.6-7.3,9.4-13.3c-0.2-3.4-1.6-6.3-4.1-8.6c-2.5-2.3-5.3-4.3-8.5-5.6c-3.6-1.4-7.2-2.7-10.8-4.2
	c-3.5-1.5-7-3-10.2-4.9c-7.4-4.4-11-11-10.6-19.7c0.1-2.3,0.2-4.5,0.7-6.7c1.4-6.2,5.1-10.9,10.6-14.1c4.2-2.5,8.9-3.9,13.7-4.4
	c8.5-0.8,16.9-0.2,25,3c4,1.6,4,1.6,4,5.7c0,4.9,0,9.8,0,14.8c0,0.9-0.1,1.8-0.2,2.7c-0.6,0.1-1.1,0.2-1.5,0.3
	c-3.8,0.4-4.1-0.2-4.5-3.3c-0.4-3.1-1.6-6-3.2-8.7c-5.2-8.7-16-9.9-23.1-6.5c-7.1,3.4-9.8,14.4-2.7,20.4c2.7,2.3,5.8,4.1,9.1,5.4
	c4.1,1.6,8.3,2.9,12.3,4.7c3.5,1.5,7,3.2,10.3,5.3c6.5,4.2,9.8,10.6,9.9,18.2c0.1,8.5-3.6,15.5-10.5,20.7
	c-5.5,4.2-11.9,5.7-18.7,6.2c-8.8,0.6-17.4-0.5-25.5-4.1c-2.2-1-4.1-2.6-6-4.1c-0.5-0.4-0.8-1.5-0.9-2.2c-0.4-3.8-0.6-7.5-0.9-11.3
	c-0.1-1.2,0.2-2.3,0.5-3.5C517.1,312.3,516.8,310.6,516.8,308.6L516.8,308.6z"/>
<path class="st1" d="M327.2,260c-3.3,0-6.1,0-8.8,0c-0.7,0-1.4,0-2,0c-0.9,0-1.4-0.5-1.4-1.5c0-1.5,0-3,0-4.5c0-1.5,0.3-1.8,1.9-1.8
	c2.6,0,5.2-0.2,7.7,0c2.4,0.2,3.7-0.7,4.8-2.8c2.6-5.5,5.4-10.8,8-16.3c0.9-2,2.2-2.9,4.4-2.6c0.7,0.1,1.3,0.1,2.2,0.2
	c0.1,0.9,0.2,1.7,0.2,2.5c0,5.3,0,10.6,0,15.9c0,0.6,0,1.2,0,1.8c0,0.8,0.5,1.2,1.3,1.3c0.5,0,1.1,0,1.6,0c5.5,0,10.9,0,16.3,0.1
	c0.8,0,1.6,0.1,2.7,0.1c0,2.2,0,4.2,0,6.2c0,0.9-0.6,1.3-1.5,1.3c-0.8,0-1.5,0.1-2.3,0c-5.3,0-10.6-0.1-15.9-0.1
	c-1.9,0-2.4,0.5-2.4,2.4c0,16,0,31.9,0.1,47.9c0,2.9,0.3,5.9,0.8,8.8c0.3,1.7,0.9,3.4,1.7,4.9c1.8,3.4,4.8,5.1,8.7,5.3
	c3.3,0.1,6.5-0.4,9.6-1.5c1.6-0.6,1.7-0.4,2.3,1.1c0.8,2.4,0.4,3.6-1.8,4.7c-3,1.5-6.1,3.1-9.3,4.2c-4.6,1.6-9.3,1.9-14.1,1
	c-8.8-1.6-13.9-7.3-14.7-16.3c-0.1-1.2-0.1-2.4-0.1-3.6c0-18.5,0-37.1,0-55.6L327.2,260L327.2,260z"/>
<path class="st1" d="M373.5,254.6c2.3-0.4,4.3-0.7,6.4-1.1c6.1-1,12.2-2,18.4-2.9c0.7-0.1,1.3-0.2,2-0.2c1.4-0.1,1.9,0.3,2.1,1.7
	c0.1,0.8,0.1,1.7,0.1,2.5c0,22.1,0,44.2,0,66.3c0,1.7,0.1,3.3,0.2,5c0.2,2.3,1.4,3.8,3.7,4.3c2.1,0.4,4.3,0.7,6.5,0.9
	c2.3,0.3,2.4,0.3,2.4,2.6c0,1,0,1.9,0,3.2c-3.7,0.5-7.2,0.1-10.7,0.2c-3.5,0.1-7.1,0-10.7,0c-3.5,0-7,0-10.4,0
	c-3.5,0-7.1-0.1-10.8-0.1v-5.4c0.9-0.2,1.8-0.3,2.8-0.5c2-0.3,4.1-0.5,6-0.9c2.3-0.5,3.5-2,3.7-4.3c0.1-1.1,0.2-2.3,0.2-3.4
	c0-18,0-36,0-54c0-1.4-0.1-2.7-0.3-4.1c-0.3-1.9-1.4-3.1-3.4-3.4c-2-0.3-4-0.6-6.1-0.9c-2-0.3-2.1-0.5-2.1-2.5
	C373.5,256.7,373.5,255.9,373.5,254.6L373.5,254.6z"/>
<path class="st1" d="M428.4,491.3c1.1,1.6,2.2,3.2,3.3,4.9c5.4,8,10.8,16.1,16.3,24.1c0.7,1,1.4,2,2.3,2.8c1.8,1.6,3.1,1.7,5.1,0.4
	c1.1-0.7,2-1.6,3.1-2.2c1.7-0.9,3.5-0.1,3.7,1.8c0.1,0.7-0.2,1.7-0.7,2.3c-0.7,0.8-1.7,1.5-2.7,1.9c-4.8,2.1-9.1,5.1-12.9,8.7
	c-0.9,0.9-2,1.7-3.1,2.2c-1.5,0.8-3,0.3-3.7-1.1c-0.7-1.3-0.3-2.5,1.1-3.5c0.8-0.5,1.7-0.9,2.6-1.4c2.3-1.4,2.8-2.9,1.7-5.3
	c-0.5-1-1.1-2-1.7-2.9c-5.7-8.5-11.4-16.9-17.1-25.4c-0.6-0.9-1.3-1.9-2.1-2.6c-1.8-1.8-3.4-1.9-5.5-0.4c-0.9,0.6-1.6,1.3-2.5,2
	c-1.3,1-2.3,1-3.4-0.1c-1.1-1.1-1.4-2.5-0.5-3.7c0.5-0.7,1.3-1.3,2-1.8c3.7-2,7.2-4.2,10.3-7c0.5-0.4,1.1-0.7,1.7-1.1
	c1.3-0.8,2.5-0.7,3.8,0.1c5.4,3.2,10.8,6.4,16.2,9.6c8.5,5,17.1,10,25.6,15c0.4,0.2,0.9,0.4,1.8,0.8c-0.6-1-0.8-1.5-1.1-1.9
	c-6.3-9.3-12.6-18.7-19-28c-0.6-0.9-1.3-1.9-2.2-2.6c-1.7-1.5-3.4-1.5-5.1-0.1c-0.8,0.6-1.5,1.3-2.3,1.9c-1.4,1-2.9,0.8-3.9-0.3
	c-1-1.2-0.9-2.6,0.3-3.8c0.7-0.7,1.6-1.2,2.4-1.6c4.6-2.1,8.7-4.9,12.4-8.3c0.8-0.7,1.6-1.4,2.6-1.8c1.5-0.7,2.8-0.4,3.6,0.9
	c0.9,1.3,0.7,2.4-0.6,3.6c-0.8,0.7-1.8,1.3-2.7,2.1c-1.3,1.1-1.6,2-0.9,3.6c0.6,1.4,1.4,2.7,2.2,3.9c5.8,8.6,11.6,17.2,17.4,25.8
	c1.3,2,2.5,4.1,3.6,6.3c1,1.9,1.1,4-0.5,5.7c-1.5,1.7-3.6,2.3-5.8,1.8c-1.7-0.4-3.3-1.1-4.8-2c-11.7-6.8-23.4-13.6-35.1-20.4
	c-1.7-1-3.4-1.9-5.1-2.8C428.7,491,428.6,491.1,428.4,491.3L428.4,491.3z"/>
<path class="st1" d="M153.2,505.3c0.2,0.6,0.2,0.8,0.4,1c2.5,3.2,2.3,6.6,0.4,10c-1.4,2.4-3,4.7-4.4,7.1c-0.6,1-1.1,2-1.5,3
	c-0.5,1.5,0,2.8,1.2,3.6c1.2,0.9,2.4,0.9,3.7-0.2c1.1-1,2.2-2.1,3.1-3.3c1.5-1.9,2.8-4,4.2-5.9c0.7-0.9,1.5-1.4,2.7-1.3
	c1.9,0.2,3,2.1,2.4,3.8c-0.2,0.5-0.5,0.9-0.8,1.4c-1.8,2.6-3.6,5.2-5.5,7.8c-3.2,4.3-7.4,5.3-12.2,2.9c-0.4-0.2-0.8-0.4-1.2-0.7
	c-5.1-3.3-6.2-7.9-2.9-13c1.5-2.3,3.1-4.5,4.5-6.8c3.1-5,2.8-7.2-1.9-10.8c-2.6-2-5.4-3.8-8.2-5.7c-1.6-1.1-2.6-1-3.7,0.6
	c-2.5,3.6-5,7.2-7.2,11c-1.7,2.8-1,4.6,1.7,6.3c0.8,0.5,1.7,1,2.5,1.5c1.2,0.9,1.4,1.9,0.8,3.2c-0.7,1.3-1.8,2-3.2,1.5
	c-0.8-0.3-1.7-0.7-2.3-1.4c-4.6-4.4-9.8-7.8-15.6-10.4c-0.7-0.3-1.5-0.8-2-1.4c-1.1-1.2-0.9-2.7,0.3-4.1c0.9-0.9,1.9-0.9,3.2,0
	c0.7,0.5,1.3,1.1,1.9,1.6c2,1.7,3.7,1.7,5.6,0c0.7-0.6,1.2-1.3,1.8-2.1c6.1-9,12.2-18,18.3-27c0.5-0.7,0.9-1.6,1.2-2.4
	c0.7-2.1,0.3-3.5-1.6-4.7c-0.9-0.6-1.9-1-2.8-1.5c-1.5-1-1.9-2.3-1.1-3.7c0.7-1.3,2.1-1.7,3.7-1c0.6,0.3,1.2,0.7,1.7,1.1
	c4.1,3.6,8.6,6.4,13.2,9.2c3,1.8,6.1,3.6,9,5.7c2.2,1.6,4.3,3.4,6,5.5c2.6,3.1,3.7,6.7,2.3,10.8c-0.2,0.6,0,1.2-0.3,1.8
	c-0.5,1.2-0.9,2.5-1.7,3.4c-1.2,1.2-2.6,2.3-4.1,3.2c-2.7,1.8-5.7,1.8-8.7,1.2C155.4,505.9,154.5,505.6,153.2,505.3L153.2,505.3z
	 M156.2,502c1.2-0.3,2.5-0.3,3.4-0.9c5-2.9,8.1-9.5,2.8-15.1c-3.2-3.4-7.1-5.7-11.3-7.4c-2.7-1-4.4-0.4-5.8,1.6
	c-2.1,3.1-4.3,6.2-6.4,9.4c-1.2,1.8-0.9,2.6,0.8,3.8c3.3,2.2,6.7,4.3,10.1,6.4C151.8,501.2,153.8,501.9,156.2,502L156.2,502z"/>
<path class="st1" d="M119.6,449.9c0.6-0.5,1.1-1,1.7-1.4c1.2-0.9,2.4-0.8,3.5,0.2c1.1,1,1.3,2.3,0.5,3.5c-0.6,0.9-1.3,1.7-2.2,2.2
	c-4,2.4-7.4,5.5-10.6,8.8c-0.7,0.7-1.5,1.3-2.3,1.7c-1.2,0.6-2.4,0.2-3.2-0.8c-0.8-0.9-0.9-2.1-0.2-3.2c0.5-0.7,1.2-1.4,1.8-2
	c0.3-0.3,0.7-0.6,1-0.9c5-4.6,5.7-9.8,2.2-15.7c-3.8-6.3-10.7-9-17.8-7c-5.3,1.5-9.6,4.7-13.5,8.5c-2.8,2.6-5.1,5.6-6.9,9
	c-4.5,8.6-1.4,18,7.1,22.1c2.1,1,4.2,1.2,6.4,0.7c3.5-0.8,6.4-2.7,8.7-5.4c1.5-1.7,1.5-2.9,0.1-4.6c-0.8-1-1.8-1.9-2.6-2.8
	c-0.5-0.6-1.1-1.3-1.4-2c-0.6-1.2-0.3-2.2,0.7-3.1c1.1-0.9,2.2-1.1,3.3-0.2c0.9,0.7,1.7,1.5,2.3,2.5c3.5,5.5,7.9,10.1,13.1,14
	c1.9,1.4,1.8,3.9-0.2,5.1c-0.5,0.3-1.4,0.4-1.9,0.2c-1.1-0.6-2.1-1.4-3-2.3c-2.1-2.1-3-2.3-5.6-0.8c-1,0.6-2,1.3-2.9,2.1
	c-3,2.8-6,5.6-9,8.3c-0.5,0.5-1,1-1.6,1.3c-1.4,0.9-2.8,0.7-3.8-0.6c-1.1-1.3-1-2.6,0.2-3.8c0.4-0.4,0.8-0.7,1.2-1
	c0.4-0.3,0.8-0.7,1.4-1.3c-0.7-0.1-1.2-0.3-1.7-0.3c-3.7,0.2-6.8-1-9.7-3.2c-4.5-3.4-8-7.6-9.2-13.3c-1.2-5.8-0.9-11.4,2.4-16.6
	c5.5-8.7,12.6-15.3,22.6-18.3c12-3.6,22.9,2.4,27.1,12.7C118.5,444.5,118.9,447.1,119.6,449.9L119.6,449.9z"/>
<path class="st1" d="M525.3,461.6c1,5.1-0.4,9.6-3.4,13.7c-3.3,4.5-7.6,7.6-13.1,8.9c-5.2,1.2-10.3,0.6-15.1-1.6
	c-8.9-4.1-15.6-10.6-19.8-19.5c-4.4-9.3-1.7-20.6,6.1-26.9c2.8-2.2,6-3.5,9.4-4.3c0.5-0.1,1-0.3,1.7-0.5c-0.7-0.7-1.3-1.2-1.8-1.7
	c-1-1.1-1.1-2.1-0.3-3.3c0.8-1.2,2.1-1.7,3.3-1.1c1,0.5,1.9,1.2,2.6,2.1c2.9,3.7,6.2,6.8,9.9,9.6c0.7,0.5,1.4,1.2,1.9,1.9
	c0.8,1.1,0.7,2.1-0.1,3.1c-0.8,1.1-1.9,1.4-3.2,1c-0.6-0.2-1.1-0.5-1.6-0.9c-0.6-0.5-1.1-1-1.7-1.5c-5.1-4.7-11-4.8-16.4-0.3
	c-6.4,5.4-7.8,13.2-3.5,20.4c4.8,8.1,11.5,14,20.6,16.7c7.4,2.2,15.6-1.8,18.5-8.9c1.2-3,1.2-5.9-0.1-8.8c-1.3-2.8-3.3-5.1-5.8-6.9
	c-1.8-1.2-3.1-1.1-4.6,0.4c-0.9,0.9-1.6,1.9-2.4,2.7c-0.6,0.7-1.3,1.3-2,1.8c-1.2,0.7-2.4,0.4-3.3-0.5c-0.8-0.9-1-2-0.4-3.1
	c0.4-0.6,0.9-1.2,1.4-1.8c1.1-1.1,2.3-2.2,3.5-3.2c3.1-2.7,5.7-5.8,8-9.2c0.7-1.1,1.5-2.1,2.4-3c1.1-1.1,2.5-1,3.5-0.2
	c1.1,0.9,1.3,2.4,0.5,3.7c-0.4,0.7-1,1.3-1.6,1.9c-1.2,1.3-1.3,2.7-0.4,4.1c0.6,1,1.3,2.1,2.2,2.8c3.2,2.9,6.5,5.7,9.7,8.5
	c0.7,0.6,1.4,1.2,2,1.9c1.1,1.3,0.9,2.7-0.4,3.8c-1.1,1.1-2.4,1.2-3.7,0.1c-0.9-0.7-1.6-1.5-2.4-2.3
	C525.6,461.5,525.4,461.5,525.3,461.6L525.3,461.6z"/>
<path class="st1" d="M241.5,548c0.3-6.4,1.2-12.5,4-18.3c2.9-6,7.2-10.4,13.8-12.3c9.6-2.8,20.8,1.2,25.8,9.2
	c1.8,2.9,2.9,6.2,3.4,9.5c1.3,9.1-0.1,17.8-4.4,25.9c-3.2,6.1-7.9,10.5-14.8,12c-3.5,0.8-7.1,0.9-10.6,0.1c-3.6-0.8-6.5-2.6-9.2-5.3
	c-3.6-3.7-6-8-7-13C241.9,553.3,241.8,550.7,241.5,548L241.5,548z M282,542.3c-0.2-2.4-0.3-4.8-0.7-7.2c-0.6-3.8-2.3-7.3-5.4-9.6
	c-4.6-3.5-9.9-3.9-15.3-2.1c-5,1.7-7.8,5.7-9.5,10.3c-2.4,6.4-3,13.1-2,19.9c0.6,4.4,2.1,8.4,5.7,11.4s7.9,4.1,12.3,3.2
	c4.5-0.9,8.1-3.7,10.3-7.8C280.4,554.8,282,548.7,282,542.3L282,542.3z"/>
<path class="st1" d="M229.1,528.1c-0.8,8.1-4,17.8-11.8,25.2c-13.2,12.5-32.2,5.1-36.5-9.6c-1.7-5.7-1.1-11.5,0.4-17.3
	c1-3.9,2.6-7.6,4.6-11.1c0.5-0.9,1-1.9,1.5-2.8c0.2-0.5,0.4-1,0.8-1.4c1.8-1.7,3.5-3.5,5.5-5c1.9-1.3,3.9-2.3,6.2-3
	c9-2.4,20.2,1.2,25.5,8.8C228.1,516.1,229.3,520.8,229.1,528.1L229.1,528.1z M186.6,536.7c0,0.9,0,1.8,0,2.7c0,9.1,9,16.4,19.2,13.6
	c3.7-1,6.3-3.4,8.6-6.3c4.4-5.5,6.8-11.9,7.8-18.9c0.6-4.3-0.1-8.5-2.3-12.3c-4.8-8.3-18.4-10.3-25-1.1
	C190,521.1,186.4,528.2,186.6,536.7L186.6,536.7z"/>
<path class="st1" d="M275.6,14.5h37.8c0.1,1.2,0.2,2.4,0.2,3.6c0.1,3.3,0.2,6.6,0.4,10c0.1,1.3,0,2.4-1.1,3.3
	c-1.3,1-2.7,0.8-3.4-0.7c-0.4-0.8-0.4-1.7-0.5-2.6c-0.2-2-0.1-4.1-0.5-6.1c-0.4-2.7-1.8-3.9-4.4-3.9c-3.6-0.1-7.2-0.1-10.8,0
	c-2.5,0.1-3.4,0.9-3.5,3.4c-0.1,2.7,0,5.4,0.1,8.2c0,1.1,0.5,1.8,1.6,1.8c1.6,0,3.2,0.1,4.7-0.1c1.9-0.2,2.7-1.3,2.6-3.3
	c0-1.4-0.1-2.7-0.2-4.1c0-1.1,0.3-1.9,1.5-2.2c1.2-0.3,2.1-0.1,2.7,1.1c0.4,0.9,0.7,2,0.7,3c-0.1,2.1-0.6,4.2-0.6,6.3
	c0,2.6,0.3,5.1,0.5,7.7c0.1,1.4,0.3,2.9,0.3,4.3c0,1.8-0.4,2.3-1.6,2.6c-1.6,0.4-3.1-0.2-3.7-1.5c-0.3-0.7-0.5-1.4-0.6-2.2
	c-0.1-0.6,0-1.2,0.1-1.8c0.3-3-0.4-3.7-3.3-3.8c-0.5,0-1.1,0-1.6,0.1c-1.4,0.2-2,0.7-2,2c-0.1,3.2-0.1,6.5,0.1,9.7
	c0.1,2,0.9,2.5,3,2.6c3.7,0.3,7.4,0.5,11.1,0.9c0.9,0.1,1.6-0.2,2.3-0.8c1.2-1.1,1.8-2.4,2-4c0.3-1.9,0.4-3.8,0.5-5.6
	c0-0.5,0-0.9,0-1.4c0.1-1.7,0.7-2.5,2-2.6c1.2-0.1,2.5,0.8,2.8,2.1c0.2,0.6,0.2,1.2,0.2,1.8c0.1,3.7,0.1,7.4,0.1,11.1
	c0,0.3,0,0.6-0.1,0.9c-0.2,2.5-0.9,3.2-3.4,3.2c-3.9,0.1-7.9,0-11.8,0c-6.4,0.1-12.7,0.3-19,0.4c-1,0-2,0.1-2.9,0
	c-1.3-0.1-1.9-1.1-1.9-2.4c0-1.2,0.7-1.9,2-2.1c0.8-0.1,1.7,0.1,2.5,0.2c2.1,0.2,3.4-0.6,3.7-2.7c0.2-1.3,0.2-2.7,0.2-4.1
	c-0.1-7.9-0.2-15.7-0.4-23.6c0-1.1-0.1-2.1-0.3-3.2c-0.4-1.9-1.5-2.6-3.4-2.6c-0.8,0-1.5,0.1-2.3,0.2
	C275.7,17.7,275.1,17,275.6,14.5L275.6,14.5z"/>
<path class="st1" d="M556.8,213.4c-0.3,0.3-0.6,1.1-1.1,1.2c-0.5,0.1-1.2-0.4-1.6-0.8c-0.4-0.4-0.5-1.1-0.7-1.7
	c-13.6-42.6-36.3-79.5-68-110.9c-21.3-21-45.5-38-72.4-51c-0.9-0.4-1.8-0.9-2.6-1.4c-0.7-0.4-1.1-1-0.6-1.9c0.4-0.8,1.1-0.9,1.9-0.7
	c0.5,0.2,1,0.4,1.5,0.6c6.6,3.4,13.1,6.9,19.7,10.3c0.5,0.3,1.1,0.5,1.7,0.7c1.6,0.6,3.3,1.1,4.8,1.9c2.3,1.3,4.5,2.8,6.7,4.3
	c0.8,0.5,1.5,1.3,2,2.1c0.9,1.2,1.8,2.1,3.5,2.2c0.9,0.1,1.8,0.7,2.6,1.2c2.2,1.6,4.3,3.3,6.6,4.8c2.8,1.9,5.5,3.8,7.3,6.7
	c0.6,0.9,1.9,1.4,2.9,2.1c0.8,0.5,1.8,0.8,2.6,1.4c1.8,1.5,3.6,3,5.3,4.6c0.1,0.1,0.3,0.2,0.3,0.3c0.7,2.1,2.4,3.1,4.2,3.9
	c0.3,0.1,0.5,0.4,0.7,0.6c5.3,5.5,10.7,10.9,16,16.4c0.4,0.4,0.8,0.8,0.9,1.3c1,2.8,3,4.8,4.9,7c22.8,27.5,39.7,58.1,50.6,92.1
	c0.2,0.6,0.3,1.2,0.5,1.7C556.7,212.8,556.7,212.9,556.8,213.4L556.8,213.4z"/>
<path class="st1" d="M341.5,20.7c-0.6,0-1.1,0-1.7,0.1c-1.6,0.3-2.3,1-2.7,2.6c-0.5,2.5-0.9,5.1-1.3,7.6c-0.1,0.7-0.5,1.4-0.8,2.1
	c-0.5,1-1.4,1.3-2.5,1.1c-1.1-0.2-1.7-0.9-1.8-2c0-0.8,0-1.7,0.2-2.5c0.8-3.9,1.6-7.8,2.4-11.8c0.6-2.7,1.3-3.2,4.1-2.6
	c8.4,1.7,16.9,3.5,25.3,5.2c1.5,0.3,3,0.4,4.5,0.6c0.7,0.1,1.5,0.3,2.2,0.6c1.8,0.7,1.9,1.1,2,3c0.3,3.5-0.6,6.9-1.2,10.2
	c-0.4,1.9-1.6,3.7-2.8,5.3c-1.3,1.7-4,0.8-4.3-1.4c-0.2-1.6,0-3.3,0.3-4.9c0.2-1.3,0.7-2.5,0.9-3.7c0.3-1.7-0.1-3.4-1.6-4.4
	c-1.8-1.1-3.7-1.3-5.6-0.6c-1.2,0.4-1.6,1.6-1.9,2.7c-0.6,2.5-1.2,5-1.7,7.5c-1.2,6.2-2.4,12.3-3.6,18.5c-0.5,2.9,0,3.8,2.9,4.6
	c0.7,0.2,1.5,0.4,2.2,0.7c1.3,0.6,1.9,1.6,1.8,2.9c-0.2,1.4-0.9,2.3-2.2,2.5c-1.2,0.2-2.4,0.2-3.6,0c-3.1-0.7-6.2-1.4-9.2-2.6
	c-1.9-0.7-3.7-1-5.7-1.2c-2.1-0.2-2.8-0.9-2.7-2.6c0.1-1.8,1.4-2.8,3.1-2.1c1.8,0.8,3.5,0.8,5.1-0.5c1.1-0.9,1.4-2.1,1.6-3.4
	c0.9-4.4,1.7-8.8,2.6-13.1c0.8-3.9,1.4-7.9,2.4-11.8c0.9-3.8-0.7-6-4.5-6.5C342.8,20.8,342.1,20.7,341.5,20.7L341.5,20.7z"/>
<path class="st1" d="M263.2,28.5c0,5-1.6,8.2-5,10.5c-0.4,0.3-0.9,0.6-1.3,0.8c-4.1,1.7-7.9,4.1-12.4,4.8c-2.6,0.4-2.9,1-2.4,3.5
	c0.5,2.4,1,4.7,1.6,7.1c0.6,2.1,1.2,2.4,3.3,1.9c0.3-0.1,0.6-0.1,0.9-0.2c2.4-0.5,3.6,0.2,4.1,2.6c0.3,1.5-1.4,3.7-3.1,3.9
	c-1.4,0.2-2.9,0-4.3,0.3c-3.4,0.7-6.7,1.6-10.1,2.5c-1.2,0.3-2.4,0.6-3.5-0.2c-0.9-0.7-1.8-1.5-1.7-2.8c0.1-1.4,0.9-2.4,2.2-2.9
	c0.6-0.3,1.3-0.3,2-0.5c1.6-0.5,2.2-1.2,2-2.8c-0.1-1.7-0.5-3.3-0.8-4.9c-0.7-4-1.5-8-2.2-12c-0.2-1-0.1-2-0.2-2.9
	c-0.4-2.8-0.7-5.5-1.2-8.3c-0.1-0.5-0.4-1-0.6-1.5c-0.9-1.7-1.6-2.1-3.5-1.7c-1,0.2-1.9,0.5-2.9,0.6c-1.4,0.2-2.3-0.4-2.5-1.6
	c-0.3-1.5,0.4-2.6,1.8-2.8c2.1-0.4,4.2-0.5,6.3-0.8c2.2-0.4,4.3-0.7,6.4-1.3c4.4-1.1,8.8-2.3,13.3-2.7
	C257.4,16.2,263.1,21.4,263.2,28.5L263.2,28.5z M248.2,21.2c-3.4,0.1-6.6,1.1-9.8,2.2c-1.7,0.6-2.1,1.5-1.8,3.4
	c0.6,3.7,1.3,7.3,2.1,10.9c0.4,1.8,1,2.3,2.9,2.1c4-0.6,8.1-1.2,11.8-3c4.3-2.1,5.7-7.6,3.2-11.6C254.5,22,251.4,21.4,248.2,21.2
	L248.2,21.2z"/>
<path class="st1" d="M47,214c0.3-1.2,0.6-2.5,1.1-3.7c1.3-3.9,2.7-7.7,4.1-11.5c0.4-1.1,0.4-2.2,0.7-3.3c0.2-0.9,0.3-2,0.8-2.5
	c1.9-1.9,2.5-4.4,3.7-6.7c1.1-2.3,2.2-4.6,2.5-7.2c0.2-1.3,0.9-2.8,1.8-3.8c2.5-2.8,3.9-6.3,5.7-9.5c1.8-3.2,3.5-6.3,5.4-9.4
	c2.1-3.6,4.7-6.8,6.3-10.7c0.5-1.1,1.5-2.1,2.3-3c0.6-0.8,1.4-1.4,1.9-2.2c3.7-5.9,8.3-11.1,12.7-16.5c2.3-2.9,4.7-5.7,7.1-8.5
	c1.3-1.5,2.8-2.7,4.2-4.2c0.9-0.9,1.7-2,2.6-2.9c1.2-1.2,2.6-2.3,3.8-3.5c19.3-19.2,41.4-34.6,65.6-47c1.1-0.6,2.3-1.1,3.5-1.6
	c0.8-0.4,1.4-0.2,1.9,0.6c0.5,0.8,0.2,1.4-0.4,2c-0.4,0.3-0.7,0.5-1.1,0.7c-17.3,8.3-33.3,18.6-48.1,30.6c-2.3,1.8-4.4,3.9-6.6,5.8
	c-2.1,1.8-4.4,3.4-6.4,5.3c-3,2.8-5.9,5.8-8.8,8.8c-0.7,0.7-1.1,1.7-1.7,2.4c-0.7,0.8-1.5,1.7-2.5,2.3c-1.4,0.8-2.5,1.9-3.2,3.4
	c-0.5,1.1-1.1,2-2.3,2.3c-0.3,0.1-0.6,0.3-0.7,0.5c-1.5,3.2-4.8,4.8-6.6,7.7c-0.8,1.3-1.9,2.3-2.1,3.9c-0.1,0.6-0.7,1.5-1.3,1.7
	c-1.4,0.5-2.2,1.6-3,2.7c-8.4,11.1-15.8,22.9-22.2,35.3c-1,1.9-2,3.9-3,5.9c-0.3,0.6-0.4,1.3-0.6,1.9c-0.4,0.9-0.7,1.9-1.2,2.6
	c-0.7,0.8-1.1,1.6-1,2.6c0.1,2-0.8,3.6-2,5.2c-1,1.3-2,2.7-2.6,4.2c-2.2,5.8-4.2,11.7-6.3,17.5c-0.2,0.7-0.3,1.5-0.4,2.2
	c-0.2,1.3-0.7,1.8-1.9,1.6C47.4,215.7,46.9,215.1,47,214L47,214z"/>
<path class="st1" d="M35.5,213.5c0.3-1,0.4-1.6,0.6-2.3c13-40.4,34-76.1,63.5-106.7c17-17.7,35.9-32.8,57-45.4
	c1.1-0.6,1.9-1.6,2.9-2.4c0.2-0.1,0.3-0.4,0.5-0.4c4-1,7.3-3.6,10.9-5.3c1.6-0.7,3.1-1.6,4.7-2.3c0.7-0.3,1.4-0.6,2.1-0.7
	c0.7-0.2,1.6-0.2,1.9,0.7c0.4,1-0.1,1.6-0.9,2c-0.3,0.2-0.7,0.3-1,0.5c-25.5,12.4-48.3,28.5-68.6,48.2c-4.8,4.6-9.4,9.5-13.9,14.3
	c-2.3,2.5-4.4,5.1-6.1,8.1c-0.2,0.3-0.4,0.7-0.7,0.9c-2.2,1.2-3.5,3.4-4.9,5.2c-12.2,15.7-22.7,32.5-31.1,50.5
	c-5,10.8-9.5,21.7-13.1,33.1c-0.3,0.9-0.6,1.7-0.9,2.6c-0.3,0.7-0.8,1.3-1.5,1C36.2,214.6,35.9,213.9,35.5,213.5L35.5,213.5z"/>
<path class="st1" d="M545.4,214.4c-0.3,0.4-0.7,1-1.2,1.2c-0.4,0.1-1.2-0.3-1.5-0.6c-0.4-0.5-0.6-1.2-0.8-1.9
	c-8.3-26.2-20.6-50.5-36.6-72.8c-4.2-5.9-9-11.4-13.7-16.9c-1.8-2.2-4-4-5.8-6.2c-8.7-10.5-18.9-19.3-29.4-27.9
	c-12.7-10.3-26.5-19.1-41-26.6c-3.1-1.6-6.2-3.2-9.2-4.9c-0.4-0.2-0.9-0.4-1.1-0.7c-0.3-0.5-0.5-1.2-0.3-1.6c0.2-0.4,1-0.8,1.4-0.7
	c0.8,0.1,1.6,0.5,2.3,0.9c20.4,9.7,39.2,21.8,56.4,36.5c27.1,23.2,48.8,50.5,64.7,82.4c6.1,12.2,11.2,24.8,15.3,37.8
	C545,212.9,545.2,213.5,545.4,214.4L545.4,214.4z"/>
<path class="st1" d="M378.1,508c-0.1-1.8,1.1-3.2,3.2-3.8c1.7-0.5,3.4-0.9,5.1-1.1c3.1-0.4,6-1.3,8.7-3c1.7-1,3.4-1.9,5.2-2.7
	c1.8-0.8,3.2-0.1,3.9,1.6c0.6,1.6-0.1,3-2,3.6c-0.9,0.3-1.8,0.5-2.6,0.8c-2.2,0.8-3,2.1-2.6,4.4c0.2,1,0.5,2.1,0.9,3
	c4,9.7,8,19.5,12,29.2c0.5,1.2,1.1,2.3,1.9,3.3c1.2,1.5,2.5,1.8,4.2,1c1-0.4,2-1.1,3-1.5c1.7-0.7,2.8-0.4,3.5,0.9
	c0.8,1.5,0.5,3-1,3.9c-0.9,0.5-1.9,0.9-2.9,1.1c-5.5,1.1-10.5,3.3-15.2,6.2c-0.9,0.6-2,1.1-3.1,1.4c-1.7,0.5-3-0.4-3.4-2.1
	c-0.4-1.5,0.1-2.4,1.8-3.1c0.9-0.4,1.9-0.5,2.8-0.9c2.3-0.8,3.1-2.1,2.8-4.5c-0.1-1-0.5-1.9-0.8-2.8c-4-9.9-8.1-19.7-12.2-29.6
	c-0.5-1.1-1.1-2.2-1.8-3.1c-1.2-1.4-2.5-1.7-4.3-0.9c-0.8,0.4-1.6,0.9-2.4,1.3c-1,0.6-2.1,0.8-3.3,0.3
	C378.3,510.4,378,509.9,378.1,508L378.1,508z"/>
<path class="st1" d="M404.5,225.5c-0.1,4.3-1.6,7.9-5.8,9.7c-4.3,1.8-8.6,1.6-12.3-1.5c-3.6-3-4.1-7.1-3-11.4c1.1-4.3,4-6.9,8.3-7.6
	C399.1,213.4,404.5,218,404.5,225.5z"/>
<path class="st1" d="M60.9,422.6c-0.4,0.5-0.6,1-1,1.2c-0.4,0.2-1.1,0-1.4-0.2c-0.5-0.3-0.8-0.9-1.1-1.4
	C48.3,405.8,41,388.8,35.4,371c-0.1-0.3-0.2-0.6-0.3-0.9c-0.1-0.8,0-1.6,0.9-1.9c1-0.3,1.6,0.1,1.9,1.1c0.5,1.6,1.1,3.2,1.6,4.7
	c0.6,1.6,1,3.4,1.7,4.9c0.7,1.6,2,3,2.6,4.7c0.6,1.6,0.7,3.4,1,5.1c0.1,0.4,0.3,0.9,0.5,1.3c4.1,10.3,8.8,20.3,14.2,29.9
	C60.2,420.7,60.5,421.6,60.9,422.6L60.9,422.6z"/>
<path class="st1" d="M557.3,369.6c-0.3,1.1-0.5,1.8-0.8,2.5c-2.8,8.8-5.9,17.5-9.8,25.9c-3.6,7.9-7.6,15.6-11.5,23.4
	c-0.3,0.7-0.7,1.3-1.2,1.9c-0.5,0.6-1.1,0.8-1.8,0.3c-0.7-0.4-0.9-1-0.6-1.8c0.3-0.7,0.6-1.4,0.9-2.1c8.1-14.2,14.5-29.2,19.8-44.7
	c0.5-1.5,1-3,1.5-4.5c0.2-0.5,0.3-1,0.5-1.5c0.4-0.8,1-1.3,1.8-0.9C556.8,368.5,557,369.3,557.3,369.6L557.3,369.6z"/>
<path class="st1" d="M48.4,365.4c0.6,0.5,1.1,0.8,1.3,1.2c0.3,0.5,0.4,1.1,0.6,1.7c5.2,16.4,12,32.1,20.3,47.1
	c0.4,0.7,0.7,1.4,0.9,2.1c0.1,0.4-0.3,1.2-0.6,1.3c-0.5,0.2-1.2,0.1-1.6-0.2c-0.4-0.2-0.7-0.8-0.9-1.3
	c-8.6-15.5-15.6-31.7-20.9-48.6c-0.2-0.6-0.4-1.2-0.3-1.8C47.4,366.4,47.9,366,48.4,365.4L48.4,365.4z"/>
<path class="st1" d="M545.4,366.9c-0.2,0.8-0.4,1.3-0.5,1.8c-5.2,16.7-12.1,32.7-20.6,48c-1,1.8-1.8,2.3-2.9,1.8
	c-0.8-0.4-0.8-1.2,0.3-3.2c2.4-4.6,4.9-9,7.1-13.7c5.2-10.8,9.6-21.8,13.2-33.2c0.2-0.6,0.4-1.3,0.7-1.9c0.3-0.8,0.9-1.4,1.8-0.9
	C544.9,365.9,545.1,366.6,545.4,366.9L545.4,366.9z"/>
</svg>
